<svg width="367" height="163" viewBox="0 0 367 163" fill="none" xmlns="http://www.w3.org/2000/svg">
<path d="M16 89.3022C31.2914 66.2034 51.6856 57.237 71.995 48.9761C92.6488 40.5751 113.755 34.927 134.781 29.3096C147.822 25.8255 144.066 26.9435 155.667 23.946L183.216 16C183.216 16 146.274 28.7554 137.6 35.9644C124.979 42.8179 112.842 48.7043 103.644 56.2268C85.4812 68.7419 54.0561 87.5144 54.0561 87.5144C42.9415 93.3305 29.2033 106.75 19.2034 116.716C14.9616 120.944 18.287 121.437 21.2535 120.689C33.2922 117.654 45.0669 111.34 56.8751 106.784C88.4362 94.6049 120.455 85.1141 152.336 75.198C173.747 68.5381 195.333 63.0268 216.659 55.7302C217.952 55.288 236.95 47.1459 224.988 52.9491C183.237 73.2039 140.704 88.0482 98.583 106.188C78.4693 114.849 18.4825 142.049 39.0002 136.085C49.9965 132.888 60.7871 126.579 71.5465 121.98C102.962 108.552 134.877 98.7928 166.815 88.9049C201.46 78.1788 236.334 66.6303 271.373 59.3059C276.561 58.2214 268.941 60.0529 268.81 60.1005C250.372 66.8136 232.524 77.8646 214.545 86.9184C174.824 106.921 134.126 122.549 94.9312 145.024C93.4505 145.873 89.0491 148.535 90.5746 147.904C104.663 142.08 118.372 134.104 132.475 128.238C194.474 102.45 258.628 87.394 321.986 72.0196C331.381 69.7398 340.823 67.4376 350.304 66.1594C352.194 65.9046 349.679 66.0601 349.279 66.0601" stroke="#FFAA9E" stroke-width="30" stroke-linecap="round" stroke-linejoin="round"/>
</svg>
