<svg width="904" height="126" viewBox="0 0 904 126" fill="none" xmlns="http://www.w3.org/2000/svg">
<path d="M26 59.8397C64.8112 47.9337 109.101 41.6475 151.3 34.8407C151.315 34.8383 199.424 27.2391 199.683 27.9352C201.394 32.5425 172.046 47.04 168.095 49.3476C145.156 62.7477 119.338 75.2266 99.8629 90.3524C98.9683 91.0473 84.8293 100.885 94.7097 97.9003C125.053 88.7353 157.507 81.8937 190.14 75.792C259.239 62.8716 329.932 52.5024 400.659 42.8168C439.213 37.5371 477.91 32.6286 516.702 27.9352C524.551 26.9856 542.348 22.9297 531.78 30.5047C511.66 44.9259 483.23 55.8738 457.535 66.8523C433.578 77.0884 409.775 87.4655 385.581 97.5256C368.366 104.683 391.351 94.1711 395.219 92.8149C426.469 81.8588 462.538 74.1094 498.188 69.1541C583.737 57.2633 674.212 56.1276 761.766 53.7372C826.259 51.9764 813.481 50.6881 878 49.3476" stroke="#FFBD3D" stroke-width="51" stroke-linecap="round" stroke-linejoin="round"/>
</svg>
